<svg width="35" height="36" viewBox="0 0 35 36" fill="none" xmlns="http://www.w3.org/2000/svg">
<path d="M31.734 9.84728H29.994V9.29411C29.994 7.33164 28.3976 5.73526 26.4351 5.73526H25.8814V4.86524C25.8814 4.21012 25.3508 3.67896 24.6951 3.67896C24.0394 3.67896 23.5088 4.21012 23.5088 4.86524V5.73526H4.44948C2.48701 5.73526 0.890625 7.33164 0.890625 9.29411V16.4645C0.890625 17.773 1.95469 18.8371 3.26319 18.8371H4.38055V20.1554C4.38055 20.8106 4.91171 21.3417 5.56683 21.3417C6.22195 21.3417 6.75311 20.8106 6.75311 20.1554V18.8371H7.89943C9.01736 18.8371 9.96847 18.0754 10.2135 16.9864L10.8246 14.2762H18.0523V24.2414H3.26319C1.95469 24.2414 0.890625 25.3055 0.890625 26.614V29.2234C0.890625 31.1859 2.48701 32.7823 4.44948 32.7823H26.4351C28.3976 32.7823 29.994 31.1859 29.994 29.2234V19.4169H31.734C33.0419 19.4169 34.1066 18.3528 34.1066 17.0443V12.2198C34.1066 10.9113 33.0419 9.84728 31.734 9.84728ZM27.6214 29.2234C27.6214 29.8774 27.0896 30.4097 26.4351 30.4097H4.44948C3.79551 30.4097 3.26319 29.8774 3.26319 29.2234V26.614H18.0523C19.3603 26.614 20.4249 25.5499 20.4249 24.2414V14.2762C20.4249 12.9676 19.3603 11.9036 18.0523 11.9036H10.8246C9.70782 11.9036 8.75612 12.6647 8.50995 13.7543L7.89943 16.4645H3.26319V9.29411C3.26319 8.64015 3.79551 8.10782 4.44948 8.10782H26.4351C27.0896 8.10782 27.6214 8.64015 27.6214 9.29411V29.2234ZM29.994 17.0443V12.2198H31.734L31.7352 17.0443H29.994Z" fill="#333333"/>
<path d="M23.8882 15.2988H23.8775C23.274 15.2988 22.7891 15.7886 22.7891 16.3926C22.7891 16.9966 23.2847 17.4863 23.8882 17.4863C24.4927 17.4863 24.9819 16.9966 24.9819 16.3926C24.9819 15.7886 24.4927 15.2988 23.8882 15.2988Z" fill="#333333"/>
<path d="M23.8882 20.7676H23.8775C23.274 20.7676 22.7891 21.2573 22.7891 21.8613C22.7891 22.4653 23.2847 22.9551 23.8882 22.9551C24.4927 22.9551 24.9819 22.4653 24.9819 21.8613C24.9819 21.2573 24.4927 20.7676 23.8882 20.7676Z" fill="#333333"/>
</svg>
