<svg width="35" height="36" viewBox="0 0 35 36" fill="none" xmlns="http://www.w3.org/2000/svg">
<path d="M17.5 2.73071C8.95319 2.73071 2 9.6839 2 18.2307C2 18.9295 2.56654 19.496 3.26531 19.496C3.96407 19.496 4.53062 18.9295 4.53062 18.2307C4.53062 11.0795 10.3488 5.26133 17.5 5.26133C24.6512 5.26133 30.4694 11.0795 30.4694 18.2307C30.4694 25.3819 24.6512 31.2001 17.5 31.2001C16.8013 31.2001 16.2347 31.7667 16.2347 32.4655C16.2347 33.1642 16.8013 33.7308 17.5 33.7308C26.0469 33.7308 33 26.7776 33 18.2307C33 9.6839 26.0469 2.73071 17.5 2.73071Z" fill="#333333"/>
<path d="M17.4997 11.7988C16.8009 11.7988 16.2344 12.3654 16.2344 13.0641V18.2307C16.2344 18.5663 16.3679 18.888 16.6051 19.1256L22.6681 25.1886C22.9149 25.4357 23.2391 25.5591 23.5627 25.5591C23.8863 25.5591 24.2106 25.4354 24.4573 25.1886C24.9517 24.6942 24.9517 23.8933 24.4573 23.3992L18.765 17.7066V13.0641C18.765 12.3654 18.1984 11.7988 17.4997 11.7988Z" fill="#333333"/>
<path d="M13.2824 31.2002H3.26531C2.56654 31.2002 2 31.7667 2 32.4655C2 33.1643 2.56654 33.7308 3.26531 33.7308H13.2824C13.9812 33.7308 14.5477 33.1643 14.5477 32.4655C14.5477 31.7667 13.9812 31.2002 13.2824 31.2002Z" fill="#333333"/>
<path d="M10.1192 26.4551H3.26531C2.56654 26.4551 2 27.0216 2 27.7204C2 28.4192 2.56654 28.9857 3.26531 28.9857H10.1192C10.8179 28.9857 11.3845 28.4192 11.3845 27.7204C11.3845 27.0216 10.8179 26.4551 10.1192 26.4551Z" fill="#333333"/>
<path d="M6.9559 21.7102H3.26531C2.56654 21.7102 2 22.2767 2 22.9755C2 23.6743 2.56654 24.2408 3.26531 24.2408H6.9559C7.65466 24.2408 8.2212 23.6743 8.2212 22.9755C8.2212 22.2767 7.65466 21.7102 6.9559 21.7102Z" fill="#333333"/>
</svg>
