<svg width="35" height="36" viewBox="0 0 35 36" fill="none" xmlns="http://www.w3.org/2000/svg">
<g clip-path="url(#clip0_644_12)">
<path d="M13.3952 14.8386L12.99 17.1994C12.8831 17.823 13.1356 18.4419 13.6477 18.8131C13.9366 19.0221 14.2737 19.129 14.6131 19.129C14.8762 19.129 15.1393 19.0656 15.3824 18.9376L17.5024 17.8218L19.6211 18.9352C20.1813 19.23 20.8449 19.183 21.3582 18.8131C21.8702 18.4419 22.1216 17.823 22.0159 17.1982L21.6107 14.8386L23.3243 13.1674C23.7788 12.7269 23.9385 12.0786 23.7435 11.4773C23.5474 10.8748 23.0365 10.4437 22.4117 10.3545L20.0404 10.0104L18.9822 7.86224L18.981 7.86107C18.7015 7.2938 18.1342 6.94263 17.5024 6.94263C16.8705 6.94263 16.3032 7.29497 16.0225 7.86224L14.9643 10.0104L12.5954 10.3545C11.9682 10.4437 11.4573 10.8748 11.2612 11.4773C11.0662 12.0798 11.2271 12.7269 11.6793 13.1662L13.3952 14.8386ZM15.8182 12.0222C16.1623 11.9717 16.4594 11.7556 16.6145 11.4444L17.5024 9.64275L18.3903 11.4432C18.5453 11.7556 18.8424 11.9706 19.1866 12.0211L21.1738 12.31L19.7362 13.7111C19.4861 13.9543 19.3721 14.3043 19.432 14.6472L19.7715 16.6262L17.9933 15.6913C17.6856 15.5304 17.3168 15.5304 17.0091 15.6913L15.2309 16.6262L15.5703 14.6472C15.6302 14.3043 15.5163 13.9543 15.2661 13.7111L13.8286 12.31L15.8182 12.0222Z" fill="#333333"/>
<path d="M30.1247 13.3517C30.1247 6.39288 24.4626 0.730713 17.5038 0.730713C10.545 0.730713 4.88281 6.39288 4.88281 13.3517C4.88281 17.3097 6.71852 20.8437 9.57838 23.1597V34.0542C9.57838 34.6708 9.91546 35.2357 10.4581 35.5294C11.0018 35.8206 11.656 35.796 12.1728 35.4554L17.5038 31.9542L22.8347 35.4542C23.1131 35.6374 23.4337 35.729 23.7532 35.729C24.0256 35.729 24.2993 35.6621 24.5495 35.5282C25.0921 35.2346 25.4291 34.6708 25.4291 34.053V23.1586C28.289 20.8437 30.1247 17.3097 30.1247 13.3517ZM6.99805 13.3517C6.99805 7.55796 11.7101 2.84478 17.5038 2.84478C23.2975 2.84478 28.0095 7.55796 28.0095 13.3505C28.0095 19.143 23.2975 23.8574 17.5038 23.8574C11.7101 23.8574 6.99805 19.1442 6.99805 13.3517ZM23.3139 33.2403L18.4222 30.0281C17.8643 29.6628 17.1432 29.6617 16.5841 30.0293L11.6936 33.2403V24.5433C13.4354 25.4511 15.4085 25.9726 17.5038 25.9726C19.599 25.9726 21.5733 25.4511 23.3139 24.5433V33.2403Z" fill="#333333"/>
</g>
<defs>
<clipPath id="clip0_644_12">
<rect width="35" height="35" fill="white" transform="translate(0 0.730713)"/>
</clipPath>
</defs>
</svg>
