<svg width="24" height="24" viewBox="0 0 24 24" fill="none" xmlns="http://www.w3.org/2000/svg">
<g clip-path="url(#clip0_640_105)">
<path d="M17.9996 0H5.99985C2.70023 0 0 2.70023 0 5.99985V18.0001C0 21.2989 2.70023 24 5.99985 24H17.9996C21.2992 24 23.9994 21.2989 23.9994 18.0001V5.99985C23.9994 2.70023 21.2992 0 17.9996 0ZM21.9994 18.0001C21.9994 20.2051 20.2057 22 17.9996 22H5.99985C3.79461 22 2.00005 20.2051 2.00005 18.0001V5.99985C2.00005 3.79432 3.79461 2.00005 5.99985 2.00005H17.9996C20.2057 2.00005 21.9994 3.79432 21.9994 5.99985V18.0001Z" fill="#5E5E5E"/>
<path d="M18.5 6.99968C19.3284 6.99968 19.9999 6.32813 19.9999 5.49972C19.9999 4.67131 19.3284 3.99976 18.5 3.99976C17.6716 3.99976 17 4.67131 17 5.49972C17 6.32813 17.6716 6.99968 18.5 6.99968Z" fill="#5E5E5E"/>
<path d="M11.9999 5.99976C8.68552 5.99976 6 8.68557 6 11.9996C6 15.3124 8.68552 18 11.9999 18C15.3132 18 17.9997 15.3124 17.9997 11.9996C17.9997 8.68557 15.3132 5.99976 11.9999 5.99976ZM11.9999 16C9.79098 16 8.00005 14.2091 8.00005 11.9996C8.00005 9.79015 9.79098 7.9998 11.9999 7.9998C14.2087 7.9998 15.9997 9.79015 15.9997 11.9996C15.9997 14.2091 14.2087 16 11.9999 16Z" fill="#5E5E5E"/>
</g>
<defs>
<clipPath id="clip0_640_105">
<rect width="24" height="24" fill="white"/>
</clipPath>
</defs>
</svg>
