<svg width="132" height="132" viewBox="0 0 132 132" fill="none" xmlns="http://www.w3.org/2000/svg">
<circle cx="66" cy="66" r="64" stroke="#C855C8" stroke-width="4"/>
<path d="M19.44 80V78.976L24.336 78.496H24.816L24.784 80H19.44ZM22.416 80C22.512 76.416 22.512 72.672 22.512 69.6V67.424C22.512 63.68 22.512 59.968 22.416 56.32H27.152C27.056 59.968 27.056 63.68 27.056 67.232V69.216C27.056 72.608 27.056 76.32 27.152 80H22.416ZM24.784 80L24.816 78.816H36.4L34.16 79.872L35.792 73.152H37.424L37.392 80H24.784ZM19.44 57.376V56.32H30.352V57.376L25.392 57.792H24.336L19.44 57.376ZM50.794 80.608C44.906 80.608 39.754 76.288 39.754 68.16C39.754 60.128 44.906 55.712 50.794 55.712C56.714 55.712 61.834 60.064 61.834 68.16C61.834 76.224 56.746 80.608 50.794 80.608ZM50.794 79.424C55.05 79.424 57.066 74.56 57.066 68.16C57.066 61.792 55.05 56.896 50.794 56.896C46.57 56.896 44.522 61.792 44.522 68.16C44.522 74.56 46.57 79.424 50.794 79.424ZM77.7943 80.608C70.4023 80.608 65.4103 75.84 65.4103 68.096C65.4103 60.544 70.5303 55.712 77.9863 55.712C80.7703 55.712 82.9143 56.352 84.8983 57.472L84.8663 63.104H83.0423L81.4103 56.704L83.7143 57.568V58.88C81.9223 57.44 80.5463 56.896 78.5623 56.896C73.7943 56.896 70.2103 60.704 70.2103 68.16C70.2103 75.168 73.6343 79.424 78.3063 79.424C79.9062 79.424 81.2823 79.104 82.7222 78.464L81.1863 79.424V76.8C81.1863 73.984 81.1223 71.328 81.0583 68.48H85.6023C85.5383 71.136 85.4743 73.824 85.4743 76.928V78.528C82.9783 79.968 80.7703 80.608 77.7943 80.608ZM77.5703 69.504V68.48H87.6503V69.504L83.8103 69.984H82.0183L77.5703 69.504ZM101.013 80.608C95.1248 80.608 89.9728 76.288 89.9728 68.16C89.9728 60.128 95.1248 55.712 101.013 55.712C106.933 55.712 112.053 60.064 112.053 68.16C112.053 76.224 106.965 80.608 101.013 80.608ZM101.013 79.424C105.269 79.424 107.285 74.56 107.285 68.16C107.285 61.792 105.269 56.896 101.013 56.896C96.7888 56.896 94.7408 61.792 94.7408 68.16C94.7408 74.56 96.7888 79.424 101.013 79.424Z" fill="#C855C8"/>
</svg>
